<svg width="18" height="18" viewBox="0 0 18 18" fill="none" xmlns="http://www.w3.org/2000/svg">
<path stroke="#274A61" stroke-width="0.75px" d="M9 1.96875C7.60935 1.96875 6.24993 2.38113 5.09365 3.15373C3.93737 3.92633 3.03615 5.02446 2.50398 6.30926C1.9718 7.59405 1.83255 9.0078 2.10386 10.3717C2.37516 11.7357 3.04482 12.9885 4.02816 13.9718C5.0115 14.9552 6.26435 15.6248 7.62827 15.8961C8.9922 16.1674 10.406 16.0282 11.6907 15.496C12.9755 14.9638 14.0737 14.0626 14.8463 12.9064C15.6189 11.7501 16.0313 10.3906 16.0313 9C16.0275 7.13634 15.2856 5.35007 13.9677 4.03226C12.6499 2.71445 10.8637 1.97247 9 1.96875ZM9 15.4688C7.72061 15.4688 6.46994 15.0894 5.40616 14.3786C4.34238 13.6678 3.51326 12.6575 3.02366 11.4755C2.53405 10.2935 2.40595 8.99282 2.65555 7.73801C2.90515 6.48319 3.52124 5.33057 4.42591 4.4259C5.33058 3.52123 6.4832 2.90514 7.73801 2.65555C8.99283 2.40595 10.2935 2.53405 11.4755 3.02365C12.6575 3.51326 13.6678 4.34237 14.3786 5.40615C15.0894 6.46994 15.4688 7.7206 15.4688 9C15.4669 10.715 14.7848 12.3593 13.572 13.572C12.3593 14.7848 10.7151 15.4669 9 15.4688ZM9.84375 12.375C9.84375 12.4496 9.81412 12.5211 9.76138 12.5739C9.70863 12.6266 9.6371 12.6562 9.5625 12.6562H9C8.92541 12.6562 8.85387 12.6266 8.80113 12.5739C8.74838 12.5211 8.71875 12.4496 8.71875 12.375V8.71875H8.4375C8.36291 8.71875 8.29137 8.68912 8.23863 8.63637C8.18588 8.58363 8.15625 8.51209 8.15625 8.4375C8.15625 8.36291 8.18588 8.29137 8.23863 8.23863C8.29137 8.18588 8.36291 8.15625 8.4375 8.15625H9C9.0746 8.15625 9.14613 8.18588 9.19888 8.23863C9.25162 8.29137 9.28125 8.36291 9.28125 8.4375V12.0938H9.5625C9.6371 12.0938 9.70863 12.1234 9.76138 12.1761C9.81412 12.2289 9.84375 12.3004 9.84375 12.375ZM8.29688 5.90625C8.29688 5.795 8.32987 5.68624 8.39168 5.59374C8.45348 5.50124 8.54134 5.42914 8.64412 5.38657C8.7469 5.34399 8.86 5.33285 8.96912 5.35456C9.07823 5.37626 9.17846 5.42984 9.25713 5.5085C9.33579 5.58717 9.38937 5.6874 9.41107 5.79651C9.43277 5.90563 9.42163 6.01873 9.37906 6.12151C9.33649 6.22429 9.26439 6.31214 9.17189 6.37395C9.07938 6.43576 8.97063 6.46875 8.85938 6.46875C8.71019 6.46875 8.56712 6.40949 8.46163 6.304C8.35614 6.19851 8.29688 6.05543 8.29688 5.90625Z" fill="#274A61"/>
</svg>
