<svg width="28" height="28" viewBox="0 0 28 28" fill="none" xmlns="http://www.w3.org/2000/svg">
<path d="M14.3207 22.1663C14.554 22.1469 14.7535 22.0547 14.9192 21.8898C15.0841 21.7242 15.1665 21.5247 15.1665 21.2913C15.1665 21.0191 15.079 20.8006 14.904 20.6357C14.729 20.47 14.5054 20.3969 14.2332 20.4163C13.4359 20.4747 12.5901 20.2561 11.6957 19.7607C10.8012 19.2645 10.2373 18.365 10.004 17.0622C9.96511 16.8483 9.86284 16.6733 9.69717 16.5372C9.53228 16.4011 9.34289 16.333 9.129 16.333C8.85678 16.333 8.63317 16.4349 8.45817 16.6387C8.28317 16.8432 8.22484 17.0816 8.28317 17.3538C8.61373 19.1233 9.3915 20.3872 10.6165 21.1455C11.8415 21.9038 13.0762 22.2441 14.3207 22.1663ZM13.9998 25.6663C11.3359 25.6663 9.11461 24.7525 7.33584 22.9247C5.55628 21.0969 4.6665 18.8219 4.6665 16.0997C4.6665 14.1552 5.43961 12.0408 6.98584 9.75651C8.53128 7.4714 10.8693 4.9969 13.9998 2.33301C17.1304 4.9969 19.4688 7.4714 21.015 9.75651C22.5604 12.0408 23.3332 14.1552 23.3332 16.0997C23.3332 18.8219 22.4434 21.0969 20.6638 22.9247C18.8851 24.7525 16.6637 25.6663 13.9998 25.6663Z" fill="#0A2749"/>
</svg>
